<svg xmlns="http://www.w3.org/2000/svg" width="32" height="32" viewBox="0 0 32 32">
  <defs>
    <linearGradient id="grad1" x1="0%" y1="0%" x2="100%" y2="100%">
      <stop offset="0%" style="stop-color:#667eea;stop-opacity:1" />
      <stop offset="100%" style="stop-color:#764ba2;stop-opacity:1" />
    </linearGradient>
    <filter id="shadow" x="-50%" y="-50%" width="200%" height="200%">
      <feDropShadow dx="1" dy="1" stdDeviation="1" flood-color="#000" flood-opacity="0.2"/>
    </filter>
  </defs>
  
  <!-- 背景圆形 -->
  <circle cx="16" cy="16" r="14" fill="url(#grad1)" stroke="#fff" stroke-width="1" filter="url(#shadow)"/>
  
  <!-- 主书签图标 -->
  <path d="M8 6 C8 5 9 4 10 4 L22 4 C23 4 24 5 24 6 L24 26 L16 20 L8 26 Z" 
        fill="#fff" stroke="none"/>
  
  <!-- 整理图标 - 小星星 -->
  <path d="M22 10 L23.5 13 L27 13 L24.5 15.5 L25.5 19 L22 17 L18.5 19 L19.5 15.5 L17 13 L20.5 13 Z" 
        fill="#ffd700" stroke="#fff" stroke-width="0.5"/>
  
  <!-- 分类线条 -->
  <line x1="10" y1="8" x2="20" y2="8" stroke="#e0e7ff" stroke-width="1"/>
  <line x1="10" y1="11" x2="18" y2="11" stroke="#e0e7ff" stroke-width="1"/>
  <line x1="10" y1="14" x2="16" y2="14" stroke="#e0e7ff" stroke-width="1"/>
</svg>